<svg width="154" height="154" viewBox="0 0 154 154" fill="none" xmlns="http://www.w3.org/2000/svg">
<path d="M77 149.188C116.868 149.188 149.188 116.868 149.188 77C149.188 37.1319 116.868 4.8125 77 4.8125C37.1319 4.8125 4.8125 37.1319 4.8125 77C4.8125 116.868 37.1319 149.188 77 149.188Z" fill="#4BC190"/>
<path opacity="0.3" d="M77 134.75C108.894 134.75 134.75 108.894 134.75 77C134.75 45.1056 108.894 19.25 77 19.25C45.1056 19.25 19.25 45.1056 19.25 77C19.25 108.894 45.1056 134.75 77 134.75Z" fill="#356CB6"/>
<path d="M109.869 82.2456C115.138 82.2456 119.41 77.9741 119.41 72.7048C119.41 67.4356 115.138 63.1641 109.869 63.1641C104.6 63.1641 100.328 67.4356 100.328 72.7048C100.328 77.9741 104.6 82.2456 109.869 82.2456Z" fill="#FBC0AA"/>
<path d="M122.237 124.09C120.18 119.278 114.754 116.102 108.654 116.102H106.922C105.358 102.025 92.5564 98.6562 77 98.6562C61.4436 98.6562 48.6423 102.025 47.0783 116.102H45.3458C39.2459 116.102 33.8198 119.302 31.7625 124.09L28.875 130.924C42.1099 142.762 59.2435 149.306 77 149.306C94.7565 149.306 111.89 142.762 125.125 130.924L122.237 124.09Z" fill="#F8DC25"/>
<path d="M77 149.308H78.2031V134.75C78.2031 134.431 78.0764 134.125 77.8507 133.899C77.6251 133.674 77.3191 133.547 77 133.547C76.6809 133.547 76.3749 133.674 76.1493 133.899C75.9236 134.125 75.7969 134.431 75.7969 134.75V149.284L77 149.308Z" fill="#F2BC0F"/>
<path d="M91.4375 120.313C91.4406 117.97 90.8738 115.663 89.7861 113.588C88.6983 111.514 87.1223 109.736 85.1939 108.406C83.2655 107.077 81.0426 106.237 78.7171 105.958C76.3915 105.68 74.0331 105.971 71.8453 106.808C69.6575 107.644 67.706 109 66.1592 110.758C64.6123 112.517 63.5165 114.626 62.9664 116.902C62.4163 119.179 62.4283 121.555 63.0014 123.826C63.5745 126.097 64.6915 128.195 66.2561 129.938H66.1719L75.2073 139.984C75.4331 140.24 75.7108 140.445 76.022 140.585C76.3332 140.726 76.6706 140.798 77.012 140.798C77.3534 140.798 77.6909 140.726 78.002 140.585C78.3132 140.445 78.5909 140.24 78.8167 139.984L87.8281 129.938C90.1822 127.287 91.4685 123.857 91.4375 120.313Z" fill="white"/>
<path d="M77 101.965V118.508" stroke="#FBC0AA" stroke-width="9.375" stroke-linecap="round" stroke-linejoin="round"/>
<path d="M44.1306 82.2456C49.3999 82.2456 53.6714 77.9741 53.6714 72.7048C53.6714 67.4356 49.3999 63.1641 44.1306 63.1641C38.8614 63.1641 34.5898 67.4356 34.5898 72.7048C34.5898 77.9741 38.8614 82.2456 44.1306 82.2456Z" fill="#FBC0AA"/>
<path d="M77.0002 115.5C63.1282 115.5 47.9809 103.553 43.794 79.647C39.8598 57.1967 42.5909 51.0848 42.5909 51.0848C42.5909 31.3415 111.554 31.3415 111.554 51.0848C111.554 51.0848 113.022 59.6992 110.351 79.647C107.307 101.063 90.8963 115.5 77.0002 115.5Z" fill="#FFD8C9"/>
<path opacity="0.2" d="M88.0329 105.971H65.9676C65.9676 104.046 64.6683 95.8169 66.1722 92.4722C69.4326 85.2535 77.0003 82.0171 77.0003 82.0171C77.0003 82.0171 85.0011 85.061 88.2134 92.4722C89.5248 95.468 88.0329 104.215 88.0329 105.971Z" fill="#515570"/>
<path opacity="0.4" d="M77 97.4531C83.0156 97.4531 85.4219 93.8438 85.4219 93.8438H68.5781C68.5781 93.8438 70.9844 97.4531 77 97.4531Z" fill="#F85565"/>
<path d="M90.2344 93.8438C90.1502 87.8282 83.0156 87.7319 77 87.7319C70.9844 87.7319 63.8619 87.8282 63.7656 93.8438V113.286C67.9571 115.041 72.4559 115.945 77 115.945C81.5441 115.945 86.0429 115.041 90.2344 113.286V93.8438ZM84.2188 104.672H81.5478C81.273 104.68 81.0037 104.594 80.7848 104.427C80.5659 104.261 80.4106 104.025 80.3447 103.758L79.5988 100.774C79.5329 100.507 79.3776 100.271 79.1587 100.104C78.9397 99.9378 78.6705 99.8514 78.3956 99.8594H75.5322C75.2574 99.8514 74.9881 99.9378 74.7692 100.104C74.5503 100.271 74.3949 100.507 74.3291 100.774L73.5831 103.758C73.5173 104.025 73.3619 104.261 73.143 104.427C72.9241 104.594 72.6548 104.68 72.38 104.672H69.7812C69.1431 104.672 68.531 104.418 68.0798 103.967C67.6285 103.516 67.375 102.904 67.375 102.266V96.3463C67.375 95.7081 67.6285 95.0961 68.0798 94.6448C68.531 94.1936 69.1431 93.9401 69.7812 93.9401H84.2188C84.8569 93.9401 85.469 94.1936 85.9202 94.6448C86.3715 95.0961 86.625 95.7081 86.625 96.3463V102.266C86.625 102.904 86.3715 103.516 85.9202 103.967C85.469 104.418 84.8569 104.672 84.2188 104.672Z" fill="#7F3838"/>
<path d="M77 71.8867V86.9258" stroke="#FBC0AA" stroke-width="1.875" stroke-linecap="round" stroke-linejoin="round"/>
<path d="M80.0078 85.4219H73.9922" stroke="#FBC0AA" stroke-width="1.875" stroke-linecap="round" stroke-linejoin="round"/>
<path opacity="0.3" d="M79.4062 84.2188H80.6094" stroke="#F85565" stroke-width="0.9375" stroke-linecap="round" stroke-linejoin="round"/>
<path opacity="0.1" d="M110.219 79.7554C107.355 80.0818 104.713 81.4553 102.801 83.6118C100.889 85.7683 99.8411 88.5556 99.8596 91.4377V103.264C105.465 96.5643 109.056 88.4131 110.219 79.7554Z" fill="#515570"/>
<path opacity="0.1" d="M43.8174 79.7793C45.586 89.7773 49.3277 97.6577 53.9958 103.469V91.4376C54.0111 88.5878 52.9852 85.8306 51.111 83.6839C49.2367 81.5372 46.6431 80.1487 43.8174 79.7793Z" fill="#515570"/>
<path d="M84.7121 67.375H99.3662C100.135 67.375 100.873 67.6805 101.416 68.2243C101.96 68.768 102.266 69.5055 102.266 70.2745V74.5938C102.266 76.5083 101.505 78.3444 100.151 79.6982C98.7976 81.052 96.9615 81.8125 95.047 81.8125H89.7171C87.6207 81.8125 85.6102 80.9797 84.1278 79.4973C82.6454 78.0149 81.8126 76.0044 81.8126 73.908V70.2986C81.8094 69.9158 81.8821 69.5362 82.0264 69.1816C82.1707 68.827 82.3837 68.5045 82.6533 68.2327C82.9229 67.9609 83.2436 67.7452 83.5969 67.598C83.9503 67.4508 84.3293 67.375 84.7121 67.375Z" fill="#393C54"/>
<path d="M64.2829 81.8125H58.9531C57.0386 81.8125 55.2024 81.052 53.8487 79.6982C52.4949 78.3444 51.7343 76.5083 51.7343 74.5938V70.3106C51.7296 69.9268 51.801 69.5459 51.9446 69.1899C52.0882 68.834 52.301 68.5101 52.5707 68.237C52.8404 67.9639 53.1617 67.7471 53.5159 67.5991C53.87 67.4511 54.25 67.375 54.6339 67.375H69.2879C70.0569 67.375 70.7944 67.6805 71.3382 68.2243C71.882 68.768 72.1875 69.5055 72.1875 70.2745V73.8839C72.1906 74.924 71.9885 75.9544 71.5927 76.9162C71.1969 77.878 70.6151 78.7523 69.8808 79.4888C69.1465 80.2254 68.274 80.8098 67.3134 81.2085C66.3528 81.6073 65.323 81.8125 64.2829 81.8125Z" fill="#393C54"/>
<path d="M84.7121 67.375H99.3662C100.135 67.375 100.873 67.6805 101.416 68.2243C101.96 68.768 102.266 69.5055 102.266 70.2745V74.5938C102.266 76.5083 101.505 78.3444 100.151 79.6982C98.7976 81.052 96.9615 81.8125 95.047 81.8125H89.7171C87.6207 81.8125 85.6102 80.9797 84.1278 79.4973C82.6454 78.0149 81.8126 76.0044 81.8126 73.908V70.2986C81.8094 69.9158 81.8821 69.5362 82.0264 69.1816C82.1707 68.827 82.3837 68.5045 82.6533 68.2327C82.9229 67.9609 83.2436 67.7452 83.5969 67.598C83.9503 67.4508 84.3293 67.375 84.7121 67.375Z" stroke="#515570" stroke-width="0.9375" stroke-linecap="round" stroke-linejoin="round"/>
<path d="M64.2829 81.8125H58.9531C57.0386 81.8125 55.2024 81.052 53.8487 79.6982C52.4949 78.3444 51.7343 76.5083 51.7343 74.5938V70.3106C51.7296 69.9268 51.801 69.5459 51.9446 69.1899C52.0882 68.834 52.301 68.5101 52.5707 68.237C52.8404 67.9639 53.1617 67.7471 53.5159 67.5991C53.87 67.4512 54.25 67.375 54.6339 67.375H69.2879C70.0569 67.375 70.7944 67.6805 71.3382 68.2243C71.882 68.768 72.1875 69.5055 72.1875 70.2745V73.8839C72.1906 74.924 71.9885 75.9544 71.5927 76.9162C71.1969 77.878 70.6151 78.7523 69.8808 79.4888C69.1465 80.2254 68.274 80.8098 67.3134 81.2085C66.3528 81.6073 65.323 81.8125 64.2829 81.8125Z" stroke="#515570" stroke-width="0.9375" stroke-linecap="round" stroke-linejoin="round"/>
<path d="M72.1875 74.5938C72.1875 73.3174 72.6945 72.0933 73.597 71.1908C74.4996 70.2883 75.7236 69.7812 77 69.7812C78.2764 69.7812 79.5004 70.2883 80.403 71.1908C81.3055 72.0933 81.8125 73.3174 81.8125 74.5938" stroke="#515570" stroke-width="0.9375" stroke-linecap="round" stroke-linejoin="round"/>
<path d="M102.266 70.2745L111.072 63.1641" stroke="#515570" stroke-width="0.9375" stroke-linecap="round" stroke-linejoin="round"/>
<path d="M51.7346 70.2743L42.9277 63.248" stroke="#515570" stroke-width="0.9375" stroke-linecap="round" stroke-linejoin="round"/>
<path d="M110.688 37.2969H43.3125C41.9836 37.2969 40.9062 38.3742 40.9062 39.7031V52.9375C40.9062 54.2664 41.9836 55.3438 43.3125 55.3438H110.688C112.016 55.3438 113.094 54.2664 113.094 52.9375V39.7031C113.094 38.3742 112.016 37.2969 110.688 37.2969Z" fill="#393C54"/>
<path d="M91.438 30.4751H62.0938L48.8594 38.897H104.672L91.438 30.4751Z" fill="#393C54"/>
<path d="M40.9062 38.5H113.094" stroke="#515570" stroke-width="0.9375" stroke-linecap="round" stroke-linejoin="round"/>
<path d="M30.3164 43.7407L50.3683 23.6888L54.3753 27.6958C54.8833 28.2349 55.1606 28.9512 55.1478 29.6919C55.1351 30.4325 54.8335 31.1389 54.3072 31.6602L38.2793 47.6881C37.7468 48.2206 37.0246 48.5198 36.2716 48.5198C35.5185 48.5198 34.7963 48.2206 34.2638 47.6881L30.3164 43.7407Z" fill="#393C54"/>
<path d="M48.8294 21.1623L27.7822 42.2095C26.9505 43.0412 26.9505 44.3895 27.7822 45.2211C28.6138 46.0528 29.9622 46.0528 30.7938 45.2211L51.841 24.1739C52.6727 23.3422 52.6727 21.9939 51.841 21.1623C51.0094 20.3306 49.6611 20.3306 48.8294 21.1623Z" fill="#F85565"/>
<path d="M37.0206 24.9409L26.2647 35.6968C26.001 35.9595 25.7917 36.2717 25.6489 36.6154C25.5061 36.9592 25.4326 37.3278 25.4326 37.7C25.4326 38.0723 25.5061 38.4408 25.6489 38.7846C25.7917 39.1284 26.001 39.4405 26.2647 39.7032L28.2739 41.7124L48.33 21.6563L47.8367 21.1631C47.4048 20.7424 46.8501 20.4702 46.2531 20.3858C45.6561 20.3015 45.0477 20.4094 44.5161 20.6939L37.7064 24.4717C37.4575 24.596 37.2267 24.7539 37.0206 24.9409Z" fill="#FF8475"/>
<path d="M115.715 47.6864L99.6873 31.6585C99.1548 31.126 98.8557 30.4038 98.8557 29.6507C98.8557 28.8977 99.1548 28.1755 99.6873 27.643L103.635 23.6956L123.687 43.7475L119.714 47.7204C119.177 48.2432 118.456 48.533 117.707 48.5266C116.959 48.5202 116.242 48.2182 115.715 47.6864Z" fill="#393C54"/>
<path d="M102.18 24.1637L123.228 45.211C124.059 46.0426 125.408 46.0426 126.239 45.211C127.071 44.3794 127.071 43.031 126.239 42.1994L105.192 21.1521C104.36 20.3205 103.012 20.3205 102.18 21.1521C101.349 21.9838 101.349 23.3321 102.18 24.1637Z" fill="#F85565"/>
<path d="M116.98 24.941L127.736 35.6969C128 35.9596 128.209 36.2718 128.352 36.6156C128.495 36.9593 128.568 37.3279 128.568 37.7001C128.568 38.0724 128.495 38.4409 128.352 38.7847C128.209 39.1285 128 39.4406 127.736 39.7033L125.727 41.7125L105.671 21.6565L106.164 21.1632C106.601 20.729 107.166 20.4485 107.776 20.3639C108.386 20.2792 109.007 20.3951 109.545 20.694L116.355 24.4718C116.582 24.6006 116.793 24.7583 116.98 24.941Z" fill="#FF8475"/>
<path d="M85.4219 31.2812H68.5781L66.1719 22.8594H87.8281L85.4219 31.2812Z" fill="#393C54"/>
<path d="M63.7656 22.8594H90.2344" stroke="#515570" stroke-width="0.9375" stroke-linecap="round" stroke-linejoin="round"/>
<path d="M114.754 62.3338L102.723 51.2169L107.619 45.9111L119.651 57.016C120 57.3366 120.283 57.723 120.483 58.1529C120.682 58.5829 120.796 59.048 120.816 59.5217C120.836 59.9955 120.763 60.4685 120.6 60.9139C120.437 61.3592 120.188 61.7681 119.867 62.1172C119.546 62.4683 119.159 62.7525 118.728 62.9535C118.297 63.1545 117.831 63.2683 117.356 63.2885C116.88 63.3086 116.406 63.2346 115.959 63.0708C115.513 62.9069 115.103 62.6565 114.754 62.3338Z" fill="#515570"/>
<path d="M38.9571 62.3338L50.9883 51.2169L46.0916 45.9111L34.0604 57.016C33.7119 57.3375 33.4302 57.7244 33.2313 58.1548C33.0325 58.5852 32.9203 59.0505 32.9013 59.5242C32.8823 59.9979 32.9569 60.4708 33.1206 60.9157C33.2844 61.3606 33.5342 61.7689 33.8558 62.1172C34.1765 62.4665 34.5628 62.7492 34.9928 62.9491C35.4227 63.1491 35.8879 63.2623 36.3616 63.2824C36.8353 63.3025 37.3084 63.2291 37.7537 63.0663C38.1991 62.9036 38.608 62.6546 38.9571 62.3338Z" fill="#515570"/>
<g opacity="0.1">
<path d="M57.75 57.75L70.9844 60.1562L85.4219 58.9531L98.6562 57.75" stroke="#515570" stroke-width="0.9375" stroke-linecap="round" stroke-linejoin="round"/>
<path d="M56.5469 61.3594L72.1875 64.9688L83.0156 63.7656H98.6562" stroke="#515570" stroke-width="0.9375" stroke-linecap="round" stroke-linejoin="round"/>
<path d="M67.375 51.7344L73.3906 69.7812" stroke="#515570" stroke-width="0.9375" stroke-linecap="round" stroke-linejoin="round"/>
<path d="M78.2031 51.7344L77 69.7812" stroke="#515570" stroke-width="0.9375" stroke-linecap="round" stroke-linejoin="round"/>
</g>
<path d="M45.3462 116.102C44.0998 116.102 42.8572 116.239 41.6406 116.511C41.6406 116.511 43.313 127.531 52.938 132.344C48.9719 127.883 46.8739 122.067 47.0788 116.102H45.3462Z" fill="#F2BC0F"/>
<path d="M101.062 132.344C110.688 127.531 112.36 116.511 112.36 116.511C111.143 116.239 109.901 116.102 108.654 116.102H106.922C107.127 122.067 105.029 127.883 101.062 132.344Z" fill="#F2BC0F"/>
</svg>
