<svg width="217" height="219" viewBox="0 0 217 219" fill="none" xmlns="http://www.w3.org/2000/svg">
<path d="M108.5 0C48.825 0 0 49.0866 0 109.081C0 169.076 48.825 218.163 108.5 218.163C168.175 218.163 217 169.076 217 109.081C217 49.0866 168.175 0 108.5 0ZM108.5 27.2703C153.527 27.2703 189.875 63.8126 189.875 109.081C189.875 154.35 153.527 190.892 108.5 190.892C63.4725 190.892 27.125 154.35 27.125 109.081C27.125 63.8126 63.4725 27.2703 108.5 27.2703ZM162.75 54.5407L81.375 81.811L54.25 163.622L135.625 136.352L162.75 54.5407ZM108.5 95.4462C116.095 95.4462 122.062 101.446 122.062 109.081C122.062 116.717 116.095 122.717 108.5 122.717C100.905 122.717 94.9375 116.717 94.9375 109.081C94.9375 101.446 100.905 95.4462 108.5 95.4462Z" fill="black"/>
</svg>
