<svg width="142" height="142" viewBox="0 0 142 142" fill="none" xmlns="http://www.w3.org/2000/svg">
<path d="M91.5274 66.8163C89.2163 64.5059 85.4705 64.5059 83.16 66.8163C80.849 69.1268 80.849 72.8732 83.16 75.1837C85.4705 77.4941 89.2163 77.4941 91.5274 75.1837C93.8379 72.8732 93.8379 69.1268 91.5274 66.8163Z" fill="black"/>
<path d="M95.7114 54.2652C98.0218 51.9546 101.768 51.9546 104.079 54.2652C106.389 56.5758 106.389 60.3217 104.079 62.6328C101.768 64.9432 98.0218 64.9432 95.7114 62.6328C93.4009 60.3217 93.4009 56.5758 95.7114 54.2652Z" fill="black"/>
<path d="M116.629 66.8163C114.319 64.5059 110.573 64.5059 108.262 66.8163C105.952 69.1268 105.952 72.8732 108.262 75.1837C110.573 77.4941 114.319 77.4941 116.629 75.1837C118.941 72.8732 118.941 69.1268 116.629 66.8163Z" fill="black"/>
<path d="M95.7114 79.3671C98.0218 77.0567 101.768 77.0567 104.079 79.3671C106.389 81.6782 106.389 85.424 104.079 87.7345C101.768 90.0455 98.0218 90.0455 95.7114 87.7345C93.4009 85.424 93.4009 81.6782 95.7114 79.3671Z" fill="black"/>
<path d="M35.5003 76.9167H23.667V65.0833H35.5003V53.25H47.3337V65.0833H59.167V76.9167H47.3337V88.75H35.5003V76.9167Z" fill="black"/>
<path fill-rule="evenodd" clip-rule="evenodd" d="M41.4167 29.5835C18.5429 29.5835 0 48.1264 0 71.0002C0 93.874 18.5429 112.417 41.4167 112.417H100.583C123.457 112.417 142 93.874 142 71.0002C142 48.1264 123.457 29.5835 100.583 29.5835H41.4167ZM100.583 41.4168H41.4167C25.0783 41.4168 11.8333 54.6618 11.8333 71.0002C11.8333 87.3384 25.0783 100.583 41.4167 100.583H100.583C116.922 100.583 130.167 87.3384 130.167 71.0002C130.167 54.6618 116.922 41.4168 100.583 41.4168Z" fill="black"/>
</svg>
