<svg width="126" height="126" viewBox="0 0 126 126" fill="none" xmlns="http://www.w3.org/2000/svg">
<g clip-path="url(#clip0_184_60)">
<path fill-rule="evenodd" clip-rule="evenodd" d="M41.5418 113.399H23.5542C18.6994 113.399 15.6785 107.508 18.1404 103.312L25.1684 91.5948C28.8362 100.037 34.4887 107.099 41.5418 113.399ZM48.6514 34.3719C65.9668 19.7244 85.2293 25.6077 101.49 28.764C106.294 29.7027 111.206 27.7499 114.07 23.7683L124.853 9.64251C126.593 7.21701 126.329 3.89339 124.225 1.78289C121.518 -0.932411 117.009 -0.485283 114.886 2.70882C103.349 17.854 105.233 17.9479 83.7534 12.9709C78.5656 11.7676 73.1769 11.2745 67.9138 12.125C39.2493 16.7554 17.8829 43.001 20.7154 73.43L1.7482 106.419C-3.16946 114.817 2.87237 125.999 12.5821 125.999H75.3688C100.491 126.062 116.619 109.643 119.948 87.5866C123.553 63.6466 108.203 42.6364 86.5167 37.6972C66.3059 33.0919 45.5802 47.1214 45.4546 67.9114C45.3666 83.5921 56.7533 96.6328 71.6507 99.1591C82.9306 101.068 94.4868 94.157 95.6801 82.7477C96.8734 71.3888 88.043 61.8021 76.9641 61.8021C73.4972 61.8021 70.6898 64.6182 70.6898 68.1021C70.6898 71.5797 73.5034 74.4021 76.9766 74.4021C80.4434 74.4021 83.2571 77.2182 83.2571 80.7021C83.2571 84.1797 80.4434 87.0021 76.9766 87.0021C65.8977 87.0021 57.0547 77.406 58.2417 66.0534C59.4413 54.6377 70.9661 47.7268 82.2459 49.642C97.1434 52.1683 108.467 65.2092 108.379 80.8836C108.26 101.314 88.0115 115.415 68.0645 111.295C48.0547 107.162 33.0128 89.3898 33.0128 68.1021C33.0128 54.5697 39.0924 42.4611 48.6514 34.3719Z" fill="black"/>
</g>
<defs>
<clipPath id="clip0_184_60">
<rect width="126" height="126" fill="white"/>
</clipPath>
</defs>
</svg>
