<svg width="198" height="190" viewBox="0 0 198 190" fill="none" xmlns="http://www.w3.org/2000/svg">
<path d="M92.4707 97.3572C95.6292 93.653 119.192 79.3072 137.675 81.1031C137.675 81.1031 131.894 99.826 94.9271 104.655" stroke="black" stroke-width="1.25" stroke-linecap="round" stroke-linejoin="round"/>
<path d="M56.0583 92.9568C55.883 90.3415 69.8329 58.2644 86.766 54.981C89.135 67.3571 72.7282 85.7111 68.8676 88.9102" stroke="black" stroke-width="1.25" stroke-linecap="round" stroke-linejoin="round"/>
<path d="M62.5531 90.0044C56.3355 91.7449 51.0175 95.6473 47.6379 100.949C45.9561 104.836 44.6635 108.867 43.7777 112.989C42.9882 115.008 38.6013 120.735 38.7766 124.691C38.9519 128.648 40.4435 140.94 57.7277 146.413C75.0118 151.885 86.2421 149.107 90.5412 143.127C91.2232 142.424 91.6958 141.558 91.9096 140.62C92.1235 139.682 92.0707 138.705 91.7569 137.793C91.443 136.881 90.8796 136.067 90.1255 135.435C89.3714 134.804 88.4543 134.378 87.4702 134.203C86.3063 133.896 85.0822 133.865 83.903 134.112C82.7239 134.36 81.6251 134.879 80.7014 135.624C79.7776 136.37 79.0566 137.32 78.6004 138.392C78.1442 139.465 77.9664 140.627 78.0825 141.78C77.9072 149.353 87.8076 145.832 87.8076 145.832" stroke="black" stroke-width="1.25" stroke-linecap="round" stroke-linejoin="round"/>
<path d="M40.1229 119.68C40.7499 118.425 45.2106 117.78 44.8596 125.523C44.5086 133.267 41.0159 132.842 39.6621 130.03" stroke="black" stroke-width="1.25" stroke-linecap="round" stroke-linejoin="round"/>
<path d="M99.6567 103.935C102.034 109.706 105.019 120.566 96.5947 135.805" stroke="black" stroke-width="1.25" stroke-linecap="round" stroke-linejoin="round"/>
<path d="M69.8633 88.0117C74.6602 88.1522 87.0097 89.618 93.6885 96.2098" stroke="black" stroke-width="1.25" stroke-linecap="round" stroke-linejoin="round"/>
<path d="M128.312 74.8918L127.652 72.6632L134.232 71.0205" stroke="black" stroke-width="1.25" stroke-linecap="round" stroke-linejoin="round"/>
<path d="M133.707 78.0073L132.829 75.2713L140.331 72.1561L136.339 64.2437C139.713 62.2825 143.361 60.794 147.174 59.8235L144.279 49.3418C153.879 44.4482 164.254 41.1059 174.987 39.4491C174.987 39.4491 176.566 18.1474 177.882 11.875C168.683 14.7317 159.711 18.2206 151.034 22.3147C144.191 26.3558 130.636 36.5853 130.636 36.5853C130.636 36.5853 138.093 57.1686 138.576 57.9278L128.486 63.0214L133.533 71.1942" stroke="black" stroke-width="1.25" stroke-linecap="round" stroke-linejoin="round"/>
<path d="M110.31 135.3C105.536 147.151 98.671 158.126 90.0154 167.742C85.9209 170.997 77.8491 177.564 75.6852 177.677C73.5212 177.79 73.5208 177.396 73.5208 177.396L72.5254 178.125L71.1229 177.059L68.6067 177.788L68.0217 175.15C68.0217 175.15 65.2728 175.768 64.5708 174.87C63.8687 173.972 67.2029 171.277 67.2029 171.277C67.2029 171.277 67.9628 154.811 73.9877 149.348" stroke="black" stroke-width="1.25" stroke-linecap="round" stroke-linejoin="round"/>
<path d="M79.6387 89.3349C84.1349 81.7539 94.2255 72.9138 103.35 71.3985C112.474 69.8833 129.144 72.4506 135.944 79.2281C142.744 86.0055 149.368 99.5185 146.911 107.937C144.455 116.356 141.603 119.809 136.164 122.418C130.724 125.028 114.317 131.196 109.053 138.594" stroke="black" stroke-width="1.25" stroke-linecap="round" stroke-linejoin="round"/>
<path d="M39.2615 128.46C35.4421 130.641 24.4457 141.809 22.9834 146.328" stroke="black" stroke-width="1.25" stroke-linecap="round" stroke-linejoin="round"/>
<path d="M25.6158 145.852L20.1172 148.042L23.3347 149.838L21.6971 151.353L24.0949 151.803V152.925L25.6158 152.644L26.1422 154.663H28.0727C29.404 154.911 30.753 155.061 32.1082 155.112C39.7807 155.135 52.5801 149.333 57.4641 146.328" stroke="black" stroke-width="1.25" stroke-linecap="round" stroke-linejoin="round"/>
<path d="M29.5348 149.894L27.3691 151.465L29.5348 152.364" stroke="black" stroke-width="1.25" stroke-linecap="round" stroke-linejoin="round"/>
<path d="M51.4006 143.778C50.9364 142.465 50.7792 141.07 50.9401 139.692C51.101 138.314 51.5761 136.987 52.3317 135.805C53.7342 133.911 54.8764 132.395 56.7627 132.522C59.2996 133.354 61.5174 134.899 63.1286 136.956C64.7399 139.012 65.6703 141.486 65.7994 144.056C65.6853 144.902 65.3249 145.701 64.7595 146.36C64.194 147.019 63.4464 147.511 62.6025 147.781" stroke="black" stroke-width="1.25" stroke-linecap="round" stroke-linejoin="round"/>
<path d="M50.8262 141.53C51.8855 138.944 60.18 135.779 62.2644 135.959" stroke="black" stroke-width="1.25" stroke-linecap="round" stroke-linejoin="round"/>
<path d="M96.0537 73.9688C100.455 74.3452 116.097 78.1183 122.182 82.6304" stroke="black" stroke-width="1.25" stroke-linecap="round" stroke-linejoin="round"/>
<path d="M129.754 91.4189C131.411 94.654 132.34 98.1876 132.479 101.79" stroke="black" stroke-width="1.25" stroke-linecap="round" stroke-linejoin="round"/>
<path d="M120.81 110.548C119.052 106.82 116.796 103.328 114.098 100.16" stroke="black" stroke-width="1.25" stroke-linecap="round" stroke-linejoin="round"/>
<path d="M102.176 90.7157C99.8413 89.079 86.3183 88.3012 81.3291 88.4896" stroke="black" stroke-width="1.25" stroke-linecap="round" stroke-linejoin="round"/>
<path d="M121.317 82.8579C122.05 88.2623 120.953 93.7496 118.188 98.5099" stroke="black" stroke-width="1.25" stroke-linecap="round" stroke-linejoin="round"/>
<path d="M72.998 63.7495C75.1864 63.9898 78.6943 69.2627 78.7825 77.4026" stroke="black" stroke-width="1.25" stroke-linecap="round" stroke-linejoin="round"/>
<path d="M84.604 120.912L71.998 125.037" stroke="black" stroke-width="1.25" stroke-linecap="round" stroke-linejoin="round"/>
<path d="M49.334 109.462L53.4866 120.149" stroke="black" stroke-width="1.25" stroke-linecap="round" stroke-linejoin="round"/>
<path d="M55.2705 126.88L56.5443 127.47" stroke="black" stroke-width="1.25" stroke-linecap="round" stroke-linejoin="round"/>
<path d="M73.2848 124.616C72.8034 126.174 72.8471 132.193 77.8482 132.193C82.8494 132.193 83.2879 128.531 83.2879 126.384C83.2872 125.539 83.0675 124.708 82.6485 123.965C82.2294 123.222 81.6243 122.59 80.8875 122.128" stroke="black" stroke-width="1.25" stroke-linecap="round" stroke-linejoin="round"/>
<path d="M50.531 112.545C49.4068 112.913 48.446 113.636 47.806 114.596C47.1659 115.556 46.8845 116.697 47.0078 117.83C47.1394 119.649 48.631 122.081 50.2101 122.128C51.7891 122.175 53.0683 120.192 52.9553 118.784" stroke="black" stroke-width="1.25" stroke-linecap="round" stroke-linejoin="round"/>
<path d="M141.077 119.135C142.653 119.968 144.163 120.911 145.595 121.955L145.113 123.05L146.824 125.197L148.798 122.166" stroke="black" stroke-width="1.25" stroke-linecap="round" stroke-linejoin="round"/>
<path d="M145.557 111.965C145.557 111.965 150.245 118.04 150.552 118.925C150.709 120.38 150.709 121.847 150.552 123.303L147.434 124.259" stroke="black" stroke-width="1.25" stroke-linecap="round" stroke-linejoin="round"/>
</svg>
