<svg width="115" height="115" viewBox="0 0 115 115" fill="none" xmlns="http://www.w3.org/2000/svg">
<g clip-path="url(#clip0_184_200)">
<path d="M102.044 86.8044L101.637 86.6852C95.6953 85.0917 93.6843 83.5544 91.0415 82.5542C81.6606 78.9779 79.2215 76.4022 78.5968 75.1879C78.5723 75.1423 78.5582 75.0967 78.5371 75.0511L78.4598 64.1541L56.2149 63.9014L33.9679 64.1541L33.8906 75.0511C33.8713 75.0967 33.8538 75.1423 33.8309 75.1879C33.2062 76.4022 30.7671 78.9779 21.3862 82.5542C18.7434 83.5544 16.7326 85.0917 10.7926 86.6852L10.3856 86.8044C4.97931 88.5944 1.33984 93.6056 1.33984 99.2666V115H56.2149H111.088V99.2666C111.088 93.6056 107.448 88.5944 102.044 86.8044Z" fill="#5D9CEC"/>
<path d="M84.5208 79.7081C83.7944 79.3361 83.1487 78.9817 82.5799 78.6412C82.3904 78.5289 82.208 78.4166 82.0395 78.3112C82.0359 78.3076 82.0359 78.3076 82.0359 78.3076C81.9553 78.2551 81.871 78.2063 81.7938 78.1535C81.7868 78.1499 81.7799 78.1466 81.7727 78.143C81.6181 78.0412 81.4674 77.9395 81.3234 77.8411C81.3165 77.8341 81.3059 77.8272 81.2953 77.82C81.2356 77.7777 81.1761 77.7357 81.1199 77.6971C81.106 77.6866 81.0918 77.6796 81.0849 77.6726C80.9515 77.5778 80.8252 77.4902 80.7093 77.3988C80.6954 77.3919 80.6812 77.3777 80.6671 77.3707C80.6215 77.3357 80.5793 77.3007 80.5337 77.2654C80.5197 77.2584 80.5056 77.2443 80.4914 77.2304C80.4389 77.1881 80.3827 77.1461 80.3335 77.1041C80.2774 77.1533 80.2493 77.1322 80.2493 77.041C79.2947 76.2548 78.8243 75.6302 78.5964 75.1879C78.5719 75.1423 78.5577 75.0967 78.5366 75.0511L78.4593 64.1541L56.2144 63.9014L33.9675 64.1541L33.8902 75.0511C33.8709 75.0967 33.8534 75.1423 33.8304 75.1879C33.418 75.988 32.2143 77.3849 28.7451 79.2692C29.7399 80.459 31.7932 82.6454 34.9744 84.8109C39.1667 87.6609 46.254 91.0611 56.2142 91.0611C66.1337 91.0611 73.567 87.6887 78.0521 84.8601C81.1622 82.8983 83.3241 80.9296 84.5208 79.7081Z" fill="#DBAFA5"/>
<path d="M87.0825 43.0723C87.0825 63.1292 67.959 81.5855 56.2145 81.5855C44.4664 81.5855 25.3447 63.1292 25.3447 43.0723C25.3447 23.0153 39.1652 9.78271 56.2145 9.78271C73.262 9.78271 87.0825 23.0153 87.0825 43.0723Z" fill="#EAC6BB"/>
<path d="M84.5202 79.708C82.5723 78.7112 81.2387 77.8412 80.3331 77.1043C79.2275 78.1361 77.5535 79.529 75.3356 80.9153C69.622 84.467 63.189 86.2745 56.214 86.2745C49.2791 86.2745 43.1006 84.4881 37.8486 80.9784C35.3201 79.2833 33.6249 77.571 32.7282 76.5566C31.9493 77.2936 30.7103 78.199 28.7451 79.2691C29.7399 80.4589 31.7932 82.6453 34.9744 84.8109C39.1667 87.6608 46.254 91.061 56.2142 91.061C66.1337 91.061 73.567 87.6887 78.0521 84.8601C81.1615 82.8982 83.3234 80.9295 84.5202 79.708Z" fill="#4A89DC"/>
<path d="M58.6083 2.39352C58.6083 3.71471 57.536 4.78703 56.2148 4.78703C54.8916 4.78703 53.8213 3.71494 53.8213 2.39352C53.8213 1.0703 54.8918 3.53403e-08 56.2148 3.53403e-08C57.536 -0.000224582 58.6083 1.0703 58.6083 2.39352Z" fill="#ED5564"/>
<path d="M56.2127 2.39355C38.9212 2.39355 24.3602 16.6545 24.3602 34.246L24.3584 43.0865H88.0651L88.0687 34.246C88.0685 16.6545 73.5039 2.39355 56.2127 2.39355Z" fill="#E6E9ED"/>
<path d="M90.8196 40.9718C90.8196 40.9718 84.3098 28.7236 56.2143 28.7236C28.1187 28.7236 21.6067 40.9718 21.6067 40.9718C20.989 42.1335 21.5593 43.0845 22.8771 43.0845H89.5494C90.8688 43.0845 91.4373 42.1333 90.8196 40.9718Z" fill="#ED5564"/>
<path d="M90.4966 40.4648C90.2511 40.6088 89.9353 40.6913 89.5492 40.6913H22.8771C22.4928 40.6913 22.1734 40.6088 21.9279 40.4648C21.705 40.7878 21.6067 40.972 21.6067 40.972C20.989 42.1337 21.5593 43.0848 22.8771 43.0848H89.5494C90.8688 43.0848 91.4373 42.1337 90.8196 40.972C90.8196 40.972 90.7213 40.7876 90.4966 40.4648Z" fill="#DA4453"/>
<path d="M56.2128 9.57373C52.2469 9.57373 49.0322 12.7884 49.0322 16.7543C49.0322 20.7199 52.2469 23.9364 56.2128 23.9364C60.1802 23.9364 63.3965 20.7199 63.3965 16.7543C63.3965 12.7884 60.1802 9.57373 56.2128 9.57373ZM56.2128 19.1476C54.8932 19.1476 53.8193 18.0755 53.8193 16.7543C53.8193 15.4347 54.8932 14.3608 56.2128 14.3608C57.534 14.3608 58.6081 15.4347 58.6081 16.7543C58.6081 18.0755 57.534 19.1476 56.2128 19.1476Z" fill="#ED5564"/>
<path d="M94.5122 76.5986C83.9556 76.5986 75.3643 85.1898 75.3643 95.7463C75.3643 106.306 83.9556 114.894 94.5122 114.894C105.072 114.894 113.66 106.306 113.66 95.7463C113.66 85.1898 105.072 76.5986 94.5122 76.5986Z" fill="#ED5564"/>
<path d="M75.4131 97.1643C76.1431 107.061 84.4292 114.895 94.5118 114.895C104.788 114.895 113.2 106.759 113.642 96.5889L75.4131 97.1643Z" fill="#E6E9ED"/>
<path d="M113.422 98.7862C113.58 97.7965 113.66 96.7821 113.66 95.7469C113.66 95.1153 113.632 94.487 113.569 93.8657C110.411 94.536 103.447 95.7469 94.5122 95.7469C86.328 95.7469 79.2737 94.6905 75.4554 93.8799C75.3957 94.4906 75.3643 95.1153 75.3643 95.7469C75.3643 96.7821 75.4485 97.7965 75.6064 98.7862C79.351 99.5198 86.0753 100.534 94.5122 100.534C102.956 100.534 109.673 99.5196 113.422 98.7862Z" fill="#434A54"/>
<path d="M99.2997 98.1401C99.2997 100.786 97.1588 102.927 94.5126 102.927C91.8698 102.927 89.7256 100.786 89.7256 98.1401C89.7256 95.4972 91.8698 93.353 94.5126 93.353C97.1588 93.3528 99.2997 95.4972 99.2997 98.1401Z" fill="#E6E9ED"/>
<path d="M94.5116 105.32C90.5527 105.32 87.3311 102.099 87.3311 98.1398C87.3311 94.1809 90.5527 90.9595 94.5116 90.9595C98.4705 90.9595 101.692 94.1809 101.692 98.1398C101.692 102.099 98.4705 105.32 94.5116 105.32ZM94.5116 95.7463C93.192 95.7463 92.1181 96.8202 92.1181 98.1398C92.1181 99.4594 93.192 100.533 94.5116 100.533C95.8312 100.533 96.9051 99.4594 96.9051 98.1398C96.9051 96.8202 95.8312 95.7463 94.5116 95.7463Z" fill="#434A54"/>
<path opacity="0.2" d="M94.5125 76.5986C94.1125 76.5986 93.7124 76.6126 93.3193 76.6337C103.322 77.2583 111.267 85.5898 111.267 95.7463C111.267 105.903 103.322 114.238 93.3193 114.859C93.7124 114.881 94.1125 114.894 94.5125 114.894C105.073 114.894 113.661 106.306 113.661 95.7463C113.661 85.1898 105.073 76.5986 94.5125 76.5986Z" fill="white"/>
</g>
<defs>
<clipPath id="clip0_184_200">
<rect width="115" height="115" fill="white"/>
</clipPath>
</defs>
</svg>
