<svg width="125" height="125" viewBox="0 0 125 125" fill="none" xmlns="http://www.w3.org/2000/svg">
<g clip-path="url(#clip0_184_224)">
<path d="M118.465 28.4728H63.9419L80.9631 11.4515C81.3904 11.0243 81.3904 10.3375 80.9631 9.91028L76.7097 5.65295C76.2864 5.22571 75.5957 5.22571 75.1724 5.65295L53.2759 27.5494L31.3872 5.65295C30.96 5.22571 30.2732 5.22571 29.8459 5.65295L25.5886 9.91028C25.1614 10.3375 25.1614 11.0243 25.5886 11.4515L42.6174 28.4728H6.53467C2.92603 28.4728 0 31.4025 0 35.0111V113.129C0 116.737 2.92578 119.667 6.53467 119.667H118.466C122.074 119.667 125 116.737 125 113.129V35.0111C125 31.4025 122.074 28.4728 118.465 28.4728ZM93.6509 102.829C93.6509 104.912 91.9648 106.598 89.8857 106.598H16.3193C14.2366 106.598 12.5503 104.912 12.5503 102.829V46.8444C12.5503 44.7616 14.2363 43.0753 16.3193 43.0753H89.8857C91.9648 43.0753 93.6509 44.7614 93.6509 46.8444V102.829ZM115.524 81.4972H104.508V70.4803H115.524V81.4972ZM109.631 57.1669C106.236 57.1669 103.485 54.4127 103.485 51.0175C103.485 47.6222 106.236 44.868 109.631 44.868C113.026 44.868 115.776 47.6222 115.776 51.0175C115.776 54.4127 113.026 57.1669 109.631 57.1669Z" fill="black"/>
</g>
<defs>
<clipPath id="clip0_184_224">
<rect width="125" height="125" fill="white"/>
</clipPath>
</defs>
</svg>
