<svg width="130" height="130" viewBox="0 0 130 130" fill="none" xmlns="http://www.w3.org/2000/svg">
<path d="M27.75 57.625L25.25 57.625L25.25 60.125L25.25 69.375L25.25 71.875L27.75 71.875L77.9027 71.875L56.3696 93.3803L54.5978 95.1498L56.3702 96.9187L62.9839 103.52L64.7517 105.284L66.5178 103.518L103.518 66.5178L105.286 64.75L103.518 62.9822L66.5178 25.9822L64.7733 24.2377L63.0058 25.959L56.3921 32.3998L54.5816 34.1629L56.3642 35.9542L77.929 57.625L27.75 57.625ZM12.991 99.3342C6.15088 89.0973 2.49999 77.0619 2.49999 64.75C2.49999 48.2403 9.05846 32.4067 20.7326 20.7326C32.4067 9.05847 48.2403 2.50001 64.75 2.50001C77.0619 2.50001 89.0973 6.15091 99.3342 12.991C109.571 19.8312 117.55 29.5533 122.261 40.928C126.973 52.3027 128.206 64.8191 125.804 76.8944C123.402 88.9697 117.473 100.062 108.767 108.767C100.062 117.473 88.9697 123.402 76.8943 125.804C64.819 128.206 52.3026 126.973 40.9279 122.262C29.5532 117.55 19.8311 109.571 12.991 99.3342Z" fill="black" stroke="#FFCE00" stroke-width="5"/>
</svg>
