<svg width="130" height="130" viewBox="0 0 130 130" fill="none" xmlns="http://www.w3.org/2000/svg">
<path d="M101.75 71.875L104.25 71.875L104.25 69.375L104.25 60.125L104.25 57.625L101.75 57.625L51.5973 57.625L73.1304 36.1197L74.9022 34.3502L73.1298 32.5813L66.516 25.9805L64.7483 24.2162L62.9822 25.9822L25.9822 62.9822L24.2145 64.75L25.9822 66.5178L62.9822 103.518L64.7267 105.262L66.4942 103.541L73.1079 97.1003L74.9184 95.3371L73.1358 93.5458L51.5709 71.875L101.75 71.875ZM116.509 30.1658C123.349 40.4027 127 52.4381 127 64.75C127 81.2597 120.442 97.0933 108.767 108.767C97.0933 120.442 81.2597 127 64.75 127C52.4381 127 40.4027 123.349 30.1658 116.509C19.9288 109.669 11.9501 99.9468 7.2385 88.5721C2.52694 77.1974 1.29418 64.681 3.69611 52.6056C6.09805 40.5303 12.0268 29.4384 20.7326 20.7326C29.4384 12.0268 40.5303 6.09806 52.6056 3.69613C64.6809 1.2942 77.1973 2.52695 88.572 7.23851C99.9467 11.9501 109.669 19.9288 116.509 30.1658Z" fill="black" stroke="#FFCE00" stroke-width="5"/>
</svg>
